<?xml version="1.0" encoding="UTF-8"?>
<svg id="Layer_2" data-name="Layer 2" xmlns="http://www.w3.org/2000/svg" xmlns:xlink="http://www.w3.org/1999/xlink" viewBox="0 0 156.25 69.13">
  <defs>
    <style>
      .cls-1 {
        fill: url(#linear-gradient);
      }

      .cls-1, .cls-2 {
        stroke: #fff;
        stroke-linejoin: round;
        stroke-width: 3px;
      }

      .cls-2 {
        fill: url(#linear-gradient-2);
      }
    </style>
    <linearGradient id="linear-gradient" x1="1.5" y1="34.56" x2="67.63" y2="34.56" gradientUnits="userSpaceOnUse">
      <stop offset="0" stop-color="#00c2d1"/>
      <stop offset="1" stop-color="#00b26e"/>
    </linearGradient>
    <linearGradient id="linear-gradient-2" x1="76.82" y1="34.56" x2="154.75" y2="34.56" gradientUnits="userSpaceOnUse">
      <stop offset="0" stop-color="#56b746"/>
      <stop offset="1" stop-color="#ffdf47"/>
    </linearGradient>
  </defs>
  <g id="critical_thinking" data-name="critical thinking">
    <g id="create-innovate">
      <polygon class="cls-1" points="45.59 23.54 45.59 1.5 23.54 1.5 23.54 23.54 1.5 23.54 1.5 45.59 23.54 45.59 23.54 67.63 45.59 67.63 45.59 45.59 67.63 45.59 67.63 23.54 45.59 23.54"/>
      <polygon class="cls-2" points="154.75 40.47 131.37 17.09 115.79 1.5 100.2 17.09 76.82 40.47 92.41 56.05 104.77 43.69 104.77 52.93 104.77 67.63 126.81 67.63 126.81 52.93 126.81 43.69 139.17 56.05 154.75 40.47"/>
    </g>
  </g>
</svg>