<?xml version="1.0" encoding="UTF-8"?>
<svg id="Layer_2" data-name="Layer 2" xmlns="http://www.w3.org/2000/svg" xmlns:xlink="http://www.w3.org/1999/xlink" viewBox="0 0 254.94 244">
  <defs>
    <style>
      .cls-1 {
        fill: url(#linear-gradient);
        stroke: #fff;
        stroke-miterlimit: 10;
        stroke-width: 4px;
      }
    </style>
    <linearGradient id="linear-gradient" x1="42.13" y1="207.34" x2="227.41" y2="22.06" gradientUnits="userSpaceOnUse">
      <stop offset="0" stop-color="#7f58bd"/>
      <stop offset=".5" stop-color="#f64776"/>
      <stop offset="1" stop-color="#ffb169"/>
    </linearGradient>
  </defs>
  <g id="icons">
    <path id="community" class="cls-1" d="M101.18,212c0,16.57-13.43,30-30,30s-30-13.43-30-30,13.43-30,30-30,30,13.43,30,30ZM147.06,182c-16.57,0-30,13.43-30,30s13.43,30,30,30,30-13.43,30-30-13.43-30-30-30ZM222.94,182c-16.57,0-30,13.43-30,30s13.43,30,30,30,30-13.43,30-30-13.43-30-30-30ZM32,122c-16.57,0-30,13.43-30,30s13.43,30,30,30,30-13.43,30-30-13.43-30-30-30ZM107.88,122c-16.57,0-30,13.43-30,30s13.43,30,30,30,30-13.43,30-30-13.43-30-30-30ZM183.76,122c-16.57,0-30,13.43-30,30s13.43,30,30,30,30-13.43,30-30-13.43-30-30-30ZM71.18,62c-16.57,0-30,13.43-30,30s13.43,30,30,30,30-13.43,30-30-13.43-30-30-30ZM147.06,62c-16.57,0-30,13.43-30,30s13.43,30,30,30,30-13.43,30-30-13.43-30-30-30ZM222.94,62c-16.57,0-30,13.43-30,30s13.43,30,30,30,30-13.43,30-30-13.43-30-30-30ZM32,2C15.43,2,2,15.43,2,32s13.43,30,30,30,30-13.43,30-30S48.57,2,32,2ZM107.88,2c-16.57,0-30,13.43-30,30s13.43,30,30,30,30-13.43,30-30S124.45,2,107.88,2ZM183.76,2c-16.57,0-30,13.43-30,30s13.43,30,30,30,30-13.43,30-30-13.43-30-30-30Z"/>
  </g>
</svg>