<?xml version="1.0" encoding="UTF-8"?>
<svg id="Layer_2" data-name="Layer 2" xmlns="http://www.w3.org/2000/svg" xmlns:xlink="http://www.w3.org/1999/xlink" viewBox="0 0 92 74">
  <defs>
    <style>
      .cls-1 {
        fill: url(#linear-gradient-13);
      }

      .cls-1, .cls-2, .cls-3, .cls-4, .cls-5, .cls-6, .cls-7, .cls-8, .cls-9, .cls-10, .cls-11, .cls-12, .cls-13, .cls-14 {
        stroke: #fff;
        stroke-linejoin: round;
        stroke-width: 2px;
      }

      .cls-2 {
        fill: url(#linear-gradient-4);
      }

      .cls-3 {
        fill: url(#linear-gradient);
      }

      .cls-4 {
        fill: url(#linear-gradient-7);
      }

      .cls-5 {
        fill: url(#linear-gradient-8);
      }

      .cls-6 {
        fill: url(#linear-gradient-14);
      }

      .cls-7 {
        fill: url(#linear-gradient-10);
      }

      .cls-8 {
        fill: url(#linear-gradient-2);
      }

      .cls-9 {
        fill: url(#linear-gradient-3);
      }

      .cls-10 {
        fill: url(#linear-gradient-11);
      }

      .cls-11 {
        fill: url(#linear-gradient-6);
      }

      .cls-12 {
        fill: url(#linear-gradient-9);
      }

      .cls-13 {
        fill: url(#linear-gradient-5);
      }

      .cls-14 {
        fill: url(#linear-gradient-12);
      }
    </style>
    <linearGradient id="linear-gradient" x1="55" y1="59.5" x2="73" y2="59.5" gradientUnits="userSpaceOnUse">
      <stop offset="0" stop-color="#fcc3d4"/>
      <stop offset=".5" stop-color="#6fd3f2"/>
      <stop offset="1" stop-color="#2b6ed4"/>
    </linearGradient>
    <linearGradient id="linear-gradient-2" x1="55" y1="41.5" x2="91" y2="41.5" gradientUnits="userSpaceOnUse">
      <stop offset="0" stop-color="#00b26e"/>
      <stop offset=".5" stop-color="#87e4c8"/>
      <stop offset="1" stop-color="#ecfaff"/>
    </linearGradient>
    <linearGradient id="linear-gradient-3" x1="55" y1="10" x2="91" y2="10" gradientUnits="userSpaceOnUse">
      <stop offset="0" stop-color="#ff8d4f"/>
      <stop offset=".5" stop-color="#ffd74e"/>
      <stop offset="1" stop-color="#fff0a2"/>
    </linearGradient>
    <linearGradient id="linear-gradient-4" x1="37" y1="21.38" x2="73" y2="21.38" xlink:href="#linear-gradient-3"/>
    <linearGradient id="linear-gradient-5" y1="23.5" x2="73" y2="23.5" xlink:href="#linear-gradient"/>
    <linearGradient id="linear-gradient-6" x1="37" y1="32.5" x2="55" y2="32.5" xlink:href="#linear-gradient"/>
    <linearGradient id="linear-gradient-7" x1="37" y1="37" x2="73" y2="37" xlink:href="#linear-gradient-3"/>
    <linearGradient id="linear-gradient-8" x1="19" y1="46" x2="55" y2="46" xlink:href="#linear-gradient-3"/>
    <linearGradient id="linear-gradient-9" x1="37" y1="59.5" x2="55" y2="59.5" xlink:href="#linear-gradient-2"/>
    <linearGradient id="linear-gradient-10" x1="37" y1="50.5" x2="55" y2="50.5" xlink:href="#linear-gradient"/>
    <linearGradient id="linear-gradient-11" x1="1" y1="19" x2="37" y2="19" xlink:href="#linear-gradient-3"/>
    <linearGradient id="linear-gradient-12" x1="1" y1="32.5" x2="19" y2="32.5" xlink:href="#linear-gradient"/>
    <linearGradient id="linear-gradient-13" x1="19" y1="59.5" x2="37" y2="59.5" xlink:href="#linear-gradient"/>
    <linearGradient id="linear-gradient-14" x1="19" y1="32.5" x2="37" y2="32.5" xlink:href="#linear-gradient-2"/>
  </defs>
  <g id="critical_thinking" data-name="critical thinking">
    <g id="icon">
      <polygon class="cls-3" points="73 55 55 46 55 64 73 73 73 55"/>
      <path class="cls-8" d="M73,19l18-9v45h0c0,5.52-3.12,10.56-8.05,13.02l-9.95,4.98v-18l-18,9v-18l18-9v-18Z"/>
      <polygon class="cls-9" points="55 10 73 19 91 10 73 1 55 10"/>
      <path class="cls-2" d="M55,28l-18-9h0c11.33-5.67,24.67-5.67,36,0h0s-18,9-18,9Z"/>
      <polygon class="cls-13" points="55 28 73 37 73 19 55 10 55 28"/>
      <polygon class="cls-11" points="37 19 37 37 55 46 55 28 37 19"/>
      <polygon class="cls-4" points="55 28 37 37 55 46 73 37 55 28"/>
      <polygon class="cls-5" points="37 37 19 46 37 55 55 46 37 37"/>
      <polygon class="cls-12" points="37 55 37 73 55 64 55 46 37 55"/>
      <polygon class="cls-7" points="37 37 37 55 55 64 55 46 37 37"/>
      <polygon class="cls-10" points="37 19 19 28 1 19 19 10 37 19"/>
      <polygon class="cls-14" points="1 37 19 46 19 28 1 19 1 37"/>
      <path class="cls-1" d="M35.1,72.05l1.9.95v-18l-18-9h0c0,11.03,6.23,21.12,16.1,26.05Z"/>
      <polygon class="cls-6" points="19 28 19 46 37 37 37 19 19 28"/>
    </g>
  </g>
</svg>