<?xml version="1.0" encoding="UTF-8"?>
<svg id="Layer_2" data-name="Layer 2" xmlns="http://www.w3.org/2000/svg" xmlns:xlink="http://www.w3.org/1999/xlink" viewBox="0 0 727.42 824.94">
  <defs>
    <style>
      .cls-1 {
        fill: url(#linear-gradient);
      }

      .cls-1, .cls-2, .cls-3, .cls-4 {
        stroke-width: 0px;
      }

      .cls-2 {
        fill: #231f20;
      }

      .cls-3 {
        fill: url(#linear-gradient-2);
      }

      .cls-4 {
        fill: #fff;
      }
    </style>
    <linearGradient id="linear-gradient" x1="26" y1="194.98" x2="701.42" y2="194.98" gradientUnits="userSpaceOnUse">
      <stop offset="0" stop-color="#ec008c"/>
      <stop offset="1" stop-color="#2e3192"/>
    </linearGradient>
    <linearGradient id="linear-gradient-2" x1="168.86" y1="240.01" x2="168.86" y2="824.94" gradientUnits="userSpaceOnUse">
      <stop offset=".2" stop-color="#ffe37c"/>
      <stop offset=".8" stop-color="#fe3e64"/>
    </linearGradient>
  </defs>
  <g id="cube">
    <polygon class="cls-1" points="26 194.98 363.71 389.96 701.42 194.98 363.71 0 26 194.98"/>
    <polygon class="cls-3" points="337.71 824.94 337.71 434.99 0 240.01 0 629.97 337.71 824.94"/>
    <polygon class="cls-4" points="727.42 629.97 727.42 240.01 389.71 434.99 389.71 824.94 727.42 629.97"/>
    <g>
      <path class="cls-2" d="M466.11,595.57c-8.11,4.7-15.03,5.84-20.76,3.43-5.73-2.41-8.6-7.67-8.6-15.78s2.87-16.81,8.6-25.82c5.73-9.01,12.65-15.86,20.76-20.55,8.21-4.75,15.15-5.94,20.83-3.54,5.68,2.39,8.53,7.69,8.53,15.89s-2.84,16.67-8.53,25.7c-5.68,9.03-12.63,15.92-20.83,20.67ZM466.11,699.96c-8.11,4.7-15.03,5.84-20.76,3.43-5.73-2.41-8.6-7.67-8.6-15.78s2.87-16.81,8.6-25.82c5.73-9.01,12.65-15.86,20.76-20.55s15.15-5.94,20.83-3.54c5.68,2.39,8.53,7.69,8.53,15.89s-2.84,16.67-8.53,25.7-12.63,15.92-20.83,20.67Z"/>
      <path class="cls-2" d="M582.67,659.13v-37.22l6.38-3.69c21.16-12.26,37.42-30.3,48.79-54.14,11.37-23.84,17.05-51.38,17.05-82.61s-5.68-51.28-17.05-61.59c-11.37-10.32-27.63-9.35-48.79,2.91l-6.38,3.69v-37.22l6.38-3.69c34.01-19.7,60.33-23.26,78.96-10.68,18.63,12.58,27.95,40.18,27.95,82.79s-9.32,82.04-27.95,116.51c-18.63,34.47-44.96,61.56-78.96,81.26l-6.38,3.69Z"/>
    </g>
  </g>
</svg>