<?xml version="1.0" encoding="UTF-8"?>
<svg id="cube" xmlns="http://www.w3.org/2000/svg" xmlns:xlink="http://www.w3.org/1999/xlink" viewBox="0 0 803.42 924">
  <defs>
    <style>
      .cls-1 {
        fill: url(#linear-gradient);
      }

      .cls-1, .cls-2, .cls-3 {
        stroke-linejoin: round;
        stroke-width: 24px;
      }

      .cls-1, .cls-2, .cls-3, .cls-4 {
        stroke: #231f20;
      }

      .cls-2 {
        fill: #ffe2ea;
      }

      .cls-5 {
        fill: #231f20;
        stroke-width: 0px;
      }

      .cls-3 {
        fill: url(#linear-gradient-2);
      }

      .cls-4 {
        fill: #fff;
        stroke-miterlimit: 10;
      }
    </style>
    <linearGradient id="linear-gradient" x1="12" y1="237" x2="791.42" y2="237" gradientUnits="userSpaceOnUse">
      <stop offset="0" stop-color="#ec008c"/>
      <stop offset="1" stop-color="#2e3192"/>
    </linearGradient>
    <linearGradient id="linear-gradient-2" x1="206.86" y1="237" x2="206.86" y2="912" gradientUnits="userSpaceOnUse">
      <stop offset=".2" stop-color="#ffe37c"/>
      <stop offset=".8" stop-color="#fe3e64"/>
    </linearGradient>
  </defs>
  <polygon class="cls-4" points="791.42 687 791.42 237 401.71 12 12 237 12 687 401.71 912 791.42 687"/>
  <polygon class="cls-1" points="791.42 237 401.71 462 12 237 401.71 12 791.42 237"/>
  <polygon class="cls-3" points="12 237 401.71 462 401.71 912 12 687 12 237"/>
  <polygon class="cls-2" points="791.42 237 401.71 462 401.71 912 791.42 687 791.42 237"/>
  <g>
    <path class="cls-5" d="M507.43,620.62c-6.12,3.55-11.36,4.41-15.72,2.58-4.36-1.83-6.55-5.81-6.55-11.93s2.18-12.75,6.55-19.6c4.36-6.85,9.6-12.04,15.72-15.59,6.22-3.61,11.49-4.51,15.8-2.7s6.47,5.83,6.47,12.05-2.16,12.61-6.47,19.48-9.58,12.1-15.8,15.71ZM507.43,741.6c-6.12,3.55-11.36,4.41-15.72,2.58s-6.55-5.81-6.55-11.93,2.18-12.75,6.55-19.6,9.6-12.04,15.72-15.59,11.49-4.51,15.8-2.7,6.47,5.83,6.47,12.05-2.16,12.61-6.47,19.48-9.58,12.1-15.8,15.71Z"/>
    <path class="cls-5" d="M628.1,698.66v-27.08l4.21-2.44c23.77-13.79,42.11-34.11,55-60.95,12.89-26.84,19.34-57.81,19.34-92.92s-6.45-57.55-19.34-69.13c-12.89-11.58-31.22-10.47-55,3.32l-4.21,2.44v-27.08l7.22-4.19c32.7-18.98,58.03-21.81,75.99-8.5,17.96,13.31,26.93,41.58,26.93,84.81s-8.98,82.98-26.93,117.42c-17.96,34.44-43.29,61.15-75.99,80.13l-7.22,4.19Z"/>
  </g>
</svg>